<svg xmlns="http://www.w3.org/2000/svg" width="75" height="64" fill="none"><path fill="#1C274C" d="M6.813 22.454C6.813 11.123 14.357.615 24.686.615c7.168 0 12.488 4.714 15.771 11.402C43.742 5.33 49.061.615 56.23.615c10.331 0 17.874 10.51 17.874 21.84 0 24.253-33.646 41.493-33.646 41.493S17.794 53.038 9.668 35.14h20.073l3.19-5.671 3.727 13.043 8.727-11.22h10.907v-3.958H43.449l-5.128 6.592-4.19-14.665-6.705 11.921H8.158c.42 1.355.928 2.674 1.51 3.958H.876v-3.958h7.283a29.334 29.334 0 0 1-1.346-8.728z"/></svg>