<svg xmlns="http://www.w3.org/2000/svg" width="202" height="290" fill="none"><path fill="#1C274C" fill-rule="evenodd" d="M166.661 125.583a17.968 17.968 0 0 0-18.93-9.595l-95.253 15.629a25.156 25.156 0 0 0-18.356 13.433l-31.3 61.627A17.97 17.97 0 0 0 4.3 225.366l41.186 56.766c5.828 8.032 17.064 9.819 25.096 3.991 8.033-5.827 9.82-17.064 3.992-25.096l-12.137-16.729a14.347 14.347 0 0 1 7.72-9.943l23.224-11.432-23.225-11.433a14.373 14.373 0 0 1-8.027-12.897V170.21c0-7.939 6.437-14.375 14.375-14.375 7.94 0 14.375 6.436 14.375 14.375v19.437l41.397 20.377a14.307 14.307 0 0 1 6.55 6.551c2.65 5.383 1.623 11.618-2.112 15.858l.151-.038-9.006 12.413c-5.828 8.033-4.04 19.268 3.992 25.097 8.032 5.827 19.268 4.04 25.096-3.992l41.186-56.766a17.968 17.968 0 0 0 1.477-18.689l-32.949-64.875zm6.714 51.26c0 13.893-11.263 25.156-25.156 25.156-13.894 0-25.156-11.263-25.156-25.156 0-13.893 11.262-25.156 25.156-25.156 13.893 0 25.156 11.263 25.156 25.156z" clip-rule="evenodd"/><path fill="#1C274C" d="M151.812 51.063c0 27.786-22.525 50.312-50.312 50.312S51.187 78.849 51.187 51.062C51.188 23.276 73.713.75 101.5.75c27.787 0 50.312 22.526 50.312 50.313z"/></svg>